/* XPM */
static char *_b59b42ea2d4435395aab3f952e0ca97g7Cy08OsNQn6G88K[] = {
/* columns rows colors chars-per-pixel */
"58 64 200 2 ",
"   c #002E88",
".  c #00318B",
"X  c #003D94",
"o  c #003F98",
"O  c #004396",
"+  c #014A93",
"@  c #00449C",
"#  c #004C9E",
"$  c #06519A",
"%  c #1E529B",
"&  c #20538F",
"*  c #395884",
"=  c #24579A",
"-  c #2F579D",
";  c #355B9F",
":  c #004BA2",
">  c #0052A4",
",  c #0B55A6",
"<  c #0155A9",
"1  c #0059AC",
"2  c #0D5BAC",
"3  c #1456A5",
"4  c #1C56A3",
"5  c #155AAD",
"6  c #1A5EAD",
"7  c #005CB5",
"8  c #0F5DB0",
"9  c #005EB9",
"0  c #125EB1",
"q  c #2A5AA5",
"w  c #345EA3",
"e  c #3A5EA3",
"r  c #365FA9",
"t  c #0060B7",
"y  c #0060B9",
"u  c #1B61B3",
"i  c #1963BA",
"p  c #2363AE",
"a  c #2D67AD",
"s  c #3661A5",
"d  c #3B62A5",
"f  c #3661AA",
"g  c #3B65AC",
"h  c #366AAF",
"j  c #3E69AE",
"k  c #2562B3",
"l  c #2D67B7",
"z  c #2363BB",
"x  c #3166B7",
"c  c #3C67B1",
"v  c #346BB3",
"b  c #3E69B2",
"n  c #3D6CBB",
"m  c #2C71BC",
"M  c #3D71B6",
"N  c #3D71B9",
"B  c #476799",
"V  c #536F98",
"C  c #6B7483",
"Z  c #707B8A",
"A  c #4165A5",
"S  c #476CA4",
"D  c #4067AE",
"F  c #426BAE",
"G  c #4770AF",
"H  c #4B72AF",
"J  c #5276AB",
"K  c #5B79A8",
"L  c #426DB4",
"P  c #486EB2",
"I  c #426EB9",
"U  c #4671B5",
"Y  c #4A73B5",
"T  c #4572BB",
"R  c #4A75BB",
"E  c #4678BE",
"W  c #4E79BD",
"Q  c #5076B6",
"!  c #5379B3",
"~  c #5C7CB3",
"^  c #5177B9",
"/  c #527BBD",
"(  c #597EBB",
")  c #647BA4",
"_  c #356DC2",
"`  c #396FC1",
"'  c #3C72C6",
"]  c #3F75C9",
"[  c #416FC1",
"{  c #4574C3",
"}  c #4A77C3",
"|  c #4778C5",
" . c #4D79C1",
".. c #4577C9",
"X. c #4877C9",
"o. c #4579CC",
"O. c #4A7BCC",
"+. c #527DC2",
"@. c #587EC4",
"#. c #477BD1",
"$. c #4B7ED2",
"%. c #517FD0",
"&. c #5F81B1",
"*. c #5C82BC",
"=. c #768AAE",
"-. c #7F91AE",
";. c #6686B5",
":. c #6889B7",
">. c #6284BA",
",. c #668ABE",
"<. c #6D8CBD",
"1. c #7592BE",
"2. c #7B95BE",
"3. c #5581C5",
"4. c #5A84C5",
"5. c #5F88C7",
"6. c #5681C9",
"7. c #5A85CA",
"8. c #5E89CB",
"9. c #4D81D4",
"0. c #4E82D9",
"q. c #5383D5",
"w. c #5985D0",
"e. c #5788D7",
"r. c #5B8AD6",
"t. c #5485D9",
"y. c #5E8CD9",
"u. c #6387C0",
"i. c #658BC6",
"p. c #6A8CC3",
"a. c #618ACA",
"s. c #7B9BC9",
"d. c #628DD1",
"f. c #6591D3",
"g. c #8392AE",
"h. c #969CAB",
"j. c #8C9CB6",
"k. c #859ABD",
"l. c #8D9EBD",
"z. c #99A7B6",
"x. c #9FA9BB",
"c. c #A4ACBB",
"v. c #BDBCBF",
"b. c #8099C1",
"n. c #8A9FC2",
"m. c #859FC9",
"M. c #8EA3C5",
"N. c #91A5C7",
"B. c #94A9C6",
"V. c #9BADC6",
"C. c #91A6C9",
"Z. c #95ABCB",
"A. c #99ADCC",
"S. c #9CB1CE",
"D. c #9DB2D0",
"F. c #A2AFC5",
"G. c #A9B6C7",
"H. c #B5BDC5",
"J. c #B8BDCA",
"K. c #A2B6D2",
"L. c #A5B9D4",
"P. c #A9BBD7",
"I. c #ACBED9",
"U. c #BCC2CC",
"Y. c #AEC1DA",
"T. c #B6C6D5",
"R. c #BFCBD7",
"E. c #B3C5DD",
"W. c #B9C8DE",
"Q. c #B9C9E1",
"!. c #C7CACC",
"~. c #CACED3",
"^. c #C2CDD9",
"/. c #C3CDDB",
"(. c #C3CEDA",
"). c #CFD3D7",
"_. c #C5D1DD",
"`. c #CED2D8",
"'. c #C9D2DD",
"]. c #CAD5DF",
"[. c #D3D4D7",
"{. c #D2D3D8",
"}. c #D6D9DC",
"|. c #DADBDC",
" X c #DFE0DF",
".X c #C9D9E9",
"XX c #DDDEE0",
"oX c #D2DCE9",
"OX c #DDE3E9",
"+X c #DCE7F0",
"@X c #E4E5E4",
"#X c #E7E8E7",
"$X c #E9E9E7",
"%X c #EBEBEB",
"&X c #E5EBF3",
"*X c #EEF1F5",
"=X c #F1F1F1",
"-X c #F7FCFE",
";X c #FDFDFD",
":X c #FDFEFE",
/* pixels */
"e.t.e.e.e.r.y.y.e.q.q.e.y.y.y.y.e.q.q.q.e.r.8.8.r.e.q.q.e.e.e.q.q.q.q.q.e.e.q.q.q.q.q.q.q.q.q.q.q.q.q.q.q.q.q.q.%.6.",
"e.t.0.0.q.0.0.0.0.t.t.e.e.e.e.e.e.e.e.e.e.e.e.e.e.e.e.e.e.e.e.e.e.e.e.t.t.e.t.e.t.e.e.e.e.e.e.e.t.t.0.0.0.0.0.$.$.q.",
"e.t.O.| T | } { [ n l i 9 7 9 9 9 9 9 y y y y 9 y y 9 y t 9 y 9 y 9 y y y 9 9 9 9 9 9 7 7 7 9 9 i l n { { { ....9.q.",
"e.t.9.{ q d ~ k.B.K.T.^.'.].].].'.'.^.^.^.^.^.^.^.^.^.^.^.^.^.^.^.^.^.^.^.^.R.R.^.^.^.^._._.^.^.T.L.C.2.~ ; c O.9.q.",
"e.t.$.} L g d S ! :.2.Z.P.W..X+X*X-X:X:X:X:X:X:X:X:X:X:X:X:X:X:X:X:X:X:X:X:X:X:X:X:X-X*X+X.XQ.L.C.s.,.! G Y  .} 9.q.",
"e.0.O.} R L F L U U b v k p p v Y *.1.M.D.oX:X:X:X:X:X:X:X:X:X:X:X:X:X:X:X&XQ.P.Z.s.i.3.W { E E  .W W R W 3.3.} 9.q.",
"e.0.O.} W T j j F G U Q ( ( ( ( ( ^ R E 7 D.:X:X:X:X:X:X:X:X:X:X:X:X:X:X:XE.m 4.4.5.a.i.i.a.a.4.( ^ Y Y W 8.7.| 9.q.",
"e.0.O.| W R j U U Y Y F Y ^ P U U Y Y ( U P.:X:X:X:X:X:X:X:X:X:X:X:X:X:X:XW.3.i.*.*.( / ( a./ Y ( ( +./ / d.3...9.9.",
"e.t.O.4.*.W L R R R W U R / P ^ ^ W Y H v L.:X:X:X:X:X:X:X:X:X:X:X:X:X:X:XE.} ( 4.4.4.4.^ a./ ( 8.4.4.+./ d.p.O.$.9.",
"e.t.O.;.*. .L R R R W P R / P / / / ^ Y v L.:X:X:X:X:X:X:X:X:X:X:X:X:X:X:XE.W ( 8.4.5.4.^ a.( ( 8.4.4.3./ d.2.+.$.9.",
"e.0.o.>.*. .P W R R W U W +.U / / ^ W Y a L.:X:X:X:X:X:X:X:X:X:X:X:X:X:X:XE.E ( 4.4.4.4.^ a.( 3.8.4.4.3.3.d.1.+.$.9.",
"e.0.O.@.*. .U W R R W U R +.U W / W W U p K.:X:X:X:X:X:X:X:X:X:X:X:X:X:X:XE.N ^ 4.4.4.4./ 8./ +.8.4.8.4.3.f.p. .$.9.",
"w.0.O.{ +.+.U  .W R W L R +.U W W W R U p K.:X:X:X:X:X:X:X:X:X:X:X:X:X:X:XY.M Q 3.4.4.4.W a.+.+.8.4.8.4.3.f.6.{ 9.$.",
"w.0.O.} +.+.U +.W R W L R W L W W R R U p K.:X:X:X:X:X:X:X:X:X:X:X:X:X:X:XY.v Q 3.3.4.4.W a.+.+.8.4.8.4.3.f.6...9.$.",
"w.0.O.}  .+.U +.W R W L R W L W R R R P 6 K.:X:X:X:X:X:X:X:X:X:X:X:X:X:X:XY.v Y +.+.4.4.W 8.+.+.7.7.8.7.3.f.6...0.$.",
"w.9.O.{  .+.U  .W R W L R W L R R R R P 6 K.:X:X:X:X:X:X:X:X:X:X:X:X:X:X:XI.l Y +.+.4.4.W 8./ +.7.7.a.7.+.f.6...$.$.",
"w.0.O.{  . .U  . .R W L Y W L R R R R P 6 D.:X:X:X:X:X:X:X:X:X:X:X:X:X:X:XI.k Y  .+.3.3.W 8./ +.8.8.a.7.+.d.6...$.$.",
"w.$.O.{  . .L  . .R R L U W L R R R R P 5 S.:X:X:X:X:X:X:X:X:X:X:X:X:X:X:XP.u Y W +.3.3.R 8./ +.7.7.a.7.+.d.+...0.$.",
"w.$.O.{  . .L  . .R R L U R L R R R Y P 2 S.:X:X:X:X:X:X:X:X:X:X:X:X:X:X:XP.u Y W +.+.+.W 7./ +.8.7.a.4.+.d.+.{ $.$.",
"w.$.O.{  . .L  . .R R L U R L R R R U L , S.:X:X:X:X:X:X:X:X:X:X:X:X:X:X:XP.0 P W +.+.+.W 7./ +.8.7.8.7.+.d.+...$.O.",
"w.$.O.{ }  .L  . .R  .L L R L Y Y Y L L < S.:X:X:X:X:X:X:X:X:X:X:X:X:X:X:XP.8 P W  .+.+.R 7./ +.8.8.8.6.+.d.+...$.O.",
"w.$.O.{ R  .L  . .R } L I T L Y T T L F < S.:X:X:X:X:X:X:X:X:X:X:X:X:X:X:XL.2 L R  .+.+.R 7.W +.7.8.8.3.+.d.+...$.O.",
"w.$.O.{ R  .L  .R R R L L T b T T T L F < A.:X:X:X:X:X:X:X:X:X:X:X:X:X:X:XL.1 P R R +./ R 6.W +.7.7.8.3.+.d.+.{ $.O.",
"w.$.O.{ R  .L  . .R R L L T b T T L L L > A.:X:X:X:X:X:X:X:X:X:X:X:X:X:X:XL.1 P T R  ./ Y 6.W +.7.7.7.3.+.d.+.{ $.O.",
"w.$.O.{ R W L } } } R L I T b I L L L L > A.:X:X:X:X:X:X:X:X:X:X:X:X:X:X:XL.< P T R  .W Y 6.W +.7.7.7.3.+.d.+.{ $.O.",
"w.$.O.{ R W L W } R R L I T c I L L L F : A.:X:X:X:X:X:X:X:X:X:X:X:X:X:X:XK.< L T T W W Y 3.W +.7.7.7.3.+.8.+.{ $.O.",
"w.$.O.| R } L W W R R L I T c L L L b D : A.:X:X:X:X:X:X:X:X:X:X:X:X:X:X:XK.< L T T W W Y 3.W +.7.7.7.+.+.8. .{ $.O.",
"w.$.O.| R } L R W R R L I T c L L L b j : Z.:X:X:X:X:X:X:X:X:X:X:X:X:X:X:XK.< F L T R R Y 3.W +.7.7.7.+.+.8. .{ #.O.",
"w.$.O.| R } L W W R R L I T c L L L b j : Z.:X:X:X:X:X:X:X:X:X:X:X:X:X:X:XK.> F L T W R Y 3.R +.7.6.7.+./ 8. .{ $.O.",
"w.$.O.| R W b R R R E L L T j b b b g j : A.:X:X:X:X:X:X:X:X:X:X:X:X:X:X:XK.: F b L Y R U 3.R +.3.3.4.+.W 8. .{ $.O.",
"w.$.o.{ T R L L L L L b I T b j g g f g : l.:X:X:X:X:X:X:X:X:X:X:X:X:X:X:XV.> D g j L U W 3.W W +./ / W +.7. ...#.O.",
"8.#.{ +./ T R R R R R T T T U L L b b w B C v.:X:X:X:X:X:X:X:X:X:X:X:X:X{.Z V d L L R W +.+.+.3.3.3.7.7.7.8.u.} #.O.",
"8.#...*.( T R R R R R T T T T L L b j w * h.{.:X:X:X:X:X:X:X:X:X:X:X:X:XOXz.* w L L R W +.+.3.3.3.6.6.7.7.7.<.} #.O.",
"8.#.{ ( ( T E T T T U L T T L b c g f e   l.:X:X:X:X:X:X:X:X:X:X:X:X:X:X:XV.. g g b L Y W +.+./ +.+.+.3.6.6.<.} #.O.",
"8.#.} W R E L L L L I b L T b b b j f d @ C.:X:X:X:X:X:X:X:X:X:X:X:X:X:X:XD.@ g b L Y Y Y +.R R +.W +. .+.7.*.| O.O.",
"7.#.O.{ T E L T E T E L L T b L L j g d @ C.:X:X:X:X:X:X:X:X:X:X:X:X:X:X:XD.: g L L R R U +.R / 3.3.6.+.W 7. ...O.O.",
"7.#.} T T E b T T T T b L T b L b j g d @ Z.:X:X:X:X:X:X:X:X:X:X:X:X:X:X:XD.: g b L Y R U +.R W 3.+.6./ W 7. .{ O.O.",
"7.o.} T T E b T T T T b L T c b b j g d @ C.:X:X:X:X:X:X:X:X:X:X:X:X:X:X:XD.: g b L Y R U +.R W 3.+.3./ W 7.R { O.X.",
"7.o.} T T T b T T T T b L T g b b g g d @ C.:X:X:X:X:X:X:X:X:X:X:X:X:X:X:XD.: D b L R R U +.R W 3.+.3./ W 7.} { #.O.",
"8.o.{ T T T b T T T T b L U g b b g g d @ C.:X:X:X:X:X:X:X:X:X:X:X:X:X:X:XD.: D c L T R U +.Y W 3.+.3.W W 7.R { O.O.",
"8.o.} T T T b T T T T b L U g b b g g d @ C.:X:X:X:X:X:X:X:X:X:X:X:X:X:X:XD.: g c L T R U +.Y W +.+.3.W W 7.R { o.O.",
"8.o.| T T T b T T T T b b U g b b g f d @ C.:X:X:X:X:X:X:X:X:X:X:X:X:X:X:XS.: g c L T R L +.Y W +.+.3.W W 7.R { o.O.",
"a.o.| T T T b T T T T b b I g b g g f d @ N.:X:X:X:X:X:X:X:X:X:X:X:X:X:X:XA.# g j L T Y P +.Y W +.+.3.W W 7.R { o.O.",
"a.o.| T L T b T T L T b b L g b j g f d @ N.:X:X:X:X:X:X:X:X:X:X:X:X:X:X:XA.: g j L T Y P +.U W +.+.3.W R 3.R { o.X.",
"a.o.| T L T b T T L T b b L g b j g f d @ N.:X:X:X:X:X:X:X:X:X:X:X:X:X:X:XA.@ d g L U Y P +.U W +.+.3.W W 3.R { ..X.",
"a.o.{ T L T b L T L T c j L g g g g f e @ N.:X:X:X:X:X:X:X:X:X:X:X:X:X:X:XA.@ d j L U Y P +.U R +.+.+.R R 3.R { ..} ",
"i...{ T L T b L L L L g b L g j j g s e O N.:X:X:X:X:X:X:X:X:X:X:X:X:X:X:XA.@ d j L U U L  .U R +.+.+.R R 3.R { ..} ",
"i...{ I L T c L L L L g c b g j g g s e O M.:X:X:X:X:X:X:X:X:X:X:X:X:X:X:XA.@ d j L U U L W U R +.+.+.R R 3.R { ..| ",
"i...| I L U g L L L L g c b f j g g s e O M.:X:X:X:X:X:X:X:X:X:X:X:X:X:X:XA.@ d j j L U L W L R +.W +.R R 3.R { ..{ ",
"i.] | I L T g L L L I g g b f j g g s e o M.:X:X:X:X:X:X:X:X:X:X:X:X:X:X:XA.@ d g j L U L W L R / / +.R R 3.Y T ..{ ",
"i.] | I b L g b L b L g g b f j g f s e o M.:X:X:X:X:X:X:X:X:X:X:X:X:X:X:XA.@ d g j L P L W P R W W +.R R +.T T ..{ ",
"i.] | I b L g b L b L g g b f j g f s e O M.:X:X:X:X:X:X:X:X:X:X:X:X:X:X:XA.@ d g j L P L W P Y W W +.R R +.T T ..{ ",
"i.' | I b L g b b b L f g j d g g d s e O n.:X:X:X:X:X:X:X:X:X:X:X:X:X:X:XA.@ d g j L P F W L Y W W +.Y R +.T T { | ",
"i.' | n c L g b b b b f g j s g g s r e o n.:X:X:X:X:X:X:X:X:X:X:X:X:X:X:XA.@ d g j L L F R L Y W W +.Y Y +.I T { | ",
"i.' { I L L g b b b b f f j r f d s w ; o n.:X:X:X:X:X:X:X:X:X:X:X:X:X:X:XA.@ d g g L L F R F Y W W W Y Y +.R T { { ",
"p.' [ ^ ! c g b b b b s f j r f d s w ; X n.:X:X:X:X:X:X:X:X:X:X:X:X:X:X:XA.@ d d g L P F W F Y W W W Y Y / ;.T { T ",
"p.' n ! K c g b b c c f f g w s s w ; ; X n.:X:X:X:X:X:X:X:X:X:X:X:X:X:X:XZ.O e w s j F j W F Y W W W Y T / ;.I { T ",
"p._ n Y J c f b b g g r r g w w w w - w X l.:X:X:X:X:X:X:X:X:X:X:X:X:X:X:XB.O d w s g d F Y F U R R W Y U W &.I { T ",
"p._ T b g b f f f r f r f f s s s s w e X k.:X:X:X:X:X:X:X:X:X:X:X:X:X:X:XN.X A d A F F U Y U F P U U L Y W L n { T ",
"p._ T n g b g g g g g g g g g d q % + +   l.-X-X-X-X-X-X-X-X-X-X-X-X-X=X-XG.& = # 4 f L U Y Y Y Y Y Y Y R W L n { T ",
"<._ I b f g j j j j j f q 3 $ = B ) g.c.U.}.@X#X$X%X%X%X=X%X=X=X%X%X$X#X@XXX`.J.x.g.) S s a h L Y Y W W R R L b { T ",
"p.` T b j b g q 4 , 4 A ) g.x.H.~.}.@X#X$X#X@X#X#X$X$X$X$X$X%X$X$X$X$X#X@X#X$X#X@X X[.!.H.z.-.K F h h M Y ^ P L { T ",
">.z x q > 3 d K -.x.H.~.}.@X@X$X$X$X$X%X%X%X$X$X$X$X$X%X%X%X%X%X$X$X$X$X#X%X=X%X$X$X$X$X$X@XXX{.U.G.j.=.J j 2 5 z k ",
"b.u.<.1.x.U.~.}.@X#X$X$X$X$X$X$X%X%X%X%X=X%X$X$X$X$X$X$X%X%X%X%X$X$X$X$X$X%X=X=X%X%X%X%X%X%X$X$X$X$X#X|.).U.F.M.m.m."
};
