/* XPM */
static char *_280b5b0400b4b6aca65aa7f904f2219SL0xRn8mItxVUgOC[] = {
/* columns rows colors chars-per-pixel */
"57 64 100 2 ",
"   c #1D4D8F",
".  c #33619D",
"X  c #325FA6",
"o  c #3462A5",
"O  c #3D63A3",
"+  c #3663AC",
"@  c #3965AE",
"#  c #3F69AC",
"$  c #2E63B1",
"%  c #3566B4",
"&  c #3A66B2",
"*  c #3768B4",
"=  c #3D6AB5",
"-  c #3569B8",
";  c #3E6DBB",
":  c #63789A",
">  c #476BA4",
",  c #4B6FAB",
"<  c #4D71AC",
"1  c #5071A6",
"2  c #5375AB",
"3  c #5877AB",
"4  c #5978A9",
"5  c #416DB6",
"6  c #406EBC",
"7  c #4471B7",
"8  c #4C74B5",
"9  c #4271BE",
"0  c #4975BA",
"q  c #4E79BD",
"w  c #547AB6",
"e  c #5B7FB5",
"r  c #5077B9",
"t  c #5178BF",
"y  c #5F7FB8",
"u  c #3F6FC2",
"i  c #3D71C4",
"p  c #406FC0",
"a  c #4474C3",
"s  c #4877C6",
"d  c #4678C6",
"f  c #4978C6",
"g  c #4677C8",
"h  c #4877C8",
"j  c #4778C9",
"k  c #4A7BCB",
"l  c #4B7BCB",
"z  c #4B7CC9",
"x  c #4B7CCB",
"c  c #4C7CCB",
"v  c #4879CC",
"b  c #4A7BCD",
"n  c #4A7CCE",
"m  c #4C7DCC",
"M  c #517CC1",
"N  c #537EC9",
"B  c #477AD0",
"V  c #477ED5",
"C  c #4B7DD2",
"Z  c #4C7CD0",
"A  c #4C7DD2",
"S  c #4D7FD3",
"D  c #4E7FD3",
"F  c #4A7FDA",
"G  c #5D82BB",
"H  c #798BA9",
"J  c #6182B5",
"K  c #6285BD",
"L  c #6888BD",
"P  c #798EB2",
"I  c #5680C5",
"U  c #5A81C7",
"Y  c #4F81D3",
"T  c #4E81D4",
"R  c #4F81D4",
"E  c #4B80D9",
"W  c #4E83D9",
"Q  c #4E82DC",
"!  c #5182D5",
"~  c #5384D9",
"^  c #5484D8",
"/  c #6788C1",
"(  c #668FD3",
")  c #618BD6",
"_  c #638ED6",
"`  c #648DD6",
"'  c #698FD3",
"]  c #698FD4",
"[  c #638ED8",
"{  c #648ED9",
"}  c #6791D3",
"|  c #6990D3",
" . c #6A90D4",
".. c #8394B3",
"X. c #9FA7B2",
"o. c #A0A8B1",
"O. c #A0A9B9",
"+. c #B0B6BC",
"@. c #B3B8BD",
"#. c #ADB5C3",
/* pixels */
"_ _ ) ) ) ) _ _ _ _ _ [ [ { { [ [ [ [ [ _ _ _ _ _ ` { { { { ` ` ` ` ` ` ` ` ` ` ( ` ` ] ] ] ] ]  .| } | ' ' ' ' | ",
"W Q Q W Q W Q Q W W W W W Q Q W W W W W Q Q W W W W W W W W W E F F F F F F S S S S S S S V S V V V V S S S S V S ",
"^ ! k b b b x c k k k k m m m m c m m x m b k k x k x x k x x x x k k k k b b b n n b b b b n b b b b b b b b S ! ",
"~ Y m 9 ; 5 5 5 5 5 5 5 5 5 5 5 5 5 5 5 5 5 ; ; 5 5 ; ; ; ; 5 5 5 5 5 5 5 5 5 5 5 6 ; ; ; ; ; ; ; ; ; ; ; ; d S Y ",
"~ ! m 9 h h h h h h h h h h h h h h h g h h h h h h g h a h g g g g h h h h h h g g h h h h h a a a h h h 7 f S R ",
"~ ! m 9 g k k k k k k k k k b b k k k b b k k k k d d k h k k k k d k f k k d d d d g g g d d d d d h d g 0 k S R ",
"! R m 9 h d a a a a a a a 9 h b k a 9 a 9 9 9 9 9 a k k h d k h 9 9 9 9 9 9 9 9 h d d a 9 9 a i p p 6 h h 0 k S S ",
"! R m 5 h g 9 f d d d g k a a b d 9 d d g g d d h a d d d k k a a h h h h h h 9 g d h a h h a h h h a h h 9 k S S ",
"! Y c t h g 9 f d d d d k a h b k 9 f b b b b b h a d k d k k a a d d d d d d 9 h d a a d h d d d d a h g q x C R ",
"! S N / h h 9 d d d d d k a h b d a f k d d b b h a d d d d k a a d g d d d d 9 h d a a h g g g g d 9 h i L U C R ",
"! R N J h k 9 k d d d d k a h b k a h k d d k b h a k d d d d a a d d d d d g 9 h d a a h g g g g d 9 h a J I S R ",
"R S c K h k 9 k d d d d k a a b k 9 d d d d d d h a d d d d d a a d d d d d h 9 h d a 9 h g g g g d 9 h g G N C R ",
"R S x 7 h g 9 k d d d d k a a b k 9 h d d d d d h a d d h d d a a d d d d g k 9 h d a 9 h g g g g d 9 a h 0 f S S ",
"R Y x 9 h g 9 f d d d d k a a b d 9 d d d d d d h a d d h d k a a d d d d d d 9 h d a 9 h g g g h d 9 a h 9 f S S ",
"R S k 9 g g 9 d d d d d k a a b d 9 d d d d d d h a d d h d k a a g h h h g h 9 a d a 9 h g g g h h 9 a g 9 f S S ",
"! S k 9 h g 9 d d d d d k a a b d 9 h d d d d d h a d d h d k a a g h h h g d 9 a d a 9 d g g g h h 9 a g 9 f S S ",
"R S k 9 h g 9 d d g d d k a a d d 9 a d d d d d h a d g a h d a a d h h h g d 9 a d a 9 d g g g g d 9 a h 9 k S S ",
"R S k 9 h h 9 d g g d d k a a d d 9 a d d d d d h 9 g g a h g a a d g g g d d 9 h d a 9 d g g g g d 9 h g 9 k S S ",
"S S k 9 h g 6 h d g d g d a a d d 9 h d d d g d h a g g h h d a a d h g g g h 9 h d a 9 d g g g g h 9 a g 9 f S S ",
"S S k 9 h h 6 a d g g g d a a g h 9 h g g g g g h a g g h h g 9 9 d h g g g h 9 h d a 9 d g g g g h 9 a h 9 h n C ",
"S S f 9 h g 6 a d g g g d a a g h 9 h h h h g g h 9 h h h h g a a d h g g g h 9 h d a 9 h g h a h h 9 a h 9 h n C ",
"S m k 5 h h 6 h d g g g d a a g h 9 a g h h g g a 9 g h h h g a a g h g g g h 9 h g a 9 h g h a h h 9 a h 9 f C C ",
"S m k 5 h g 6 h d g g g d a a g h 9 a g h h g g a 9 h h a h g a a g h h g h h 9 h g a 6 g h h h a h 9 a g 9 d C S ",
"m S k 5 h h 6 h g g g g d a a g h 9 a g h h g g a 9 h h a h g a a g h g h h h 5 a g a 6 h h h h a a 5 a a 9 f C S ",
"S S k 6 h h 6 h g g g g g 9 a g h 9 h g g g g g a 9 h g h h g a 9 g h h h a h 6 a h 9 5 h h h h h h 5 a a 7 h C C ",
"S S k 6 h h ; a h h h h g 9 9 g h 9 h g g g g g a 9 g g h h g a 9 g h h h h h 5 a h 9 5 h h h h h h 5 a a 9 h C C ",
"S S k 5 a h ; a h h a h g 9 9 g h 9 a g h h h g a 9 h h a a h 9 9 g h h h h h 5 a g a 6 h h g h h h 5 a a 9 h C C ",
"Y n f 5 a h 5 a h a h h g 9 9 g h 9 a h h h h g a 9 h h a h h 9 9 g h h h h h 5 a g a 6 h h h h h h 5 a a 9 h n C ",
"m n f 5 a h ; a h h h a h 9 9 g h 9 a h h h h g a 9 h h a a h 9 9 g h h h h h 5 a g a 6 h h h h h h 5 a a 7 h n C ",
"m n h 5 a h ; a g g g g g a 6 g h 5 a h g g g g a 6 h h a h h 9 9 g h h h g h 5 a g 9 5 h a g g h h 5 a a 7 f n C ",
"m n h ; a a ; 5 ; a a p 6 ; a g h 9 9 ; 9 9 ; 9 ; 9 i u a a i 9 ; ; ; ; ; ; 5 ; a h a ; ; u ; ; ; 6 ; a a 5 h n C ",
"S n d 8 a a a 9 9 9 9 9 9 9 a h a 9 9 9 9 9 a 9 9 ; G G ; 0 L 8 ; 9 9 9 9 9 9 9 a h a 6 ; 6 6 9 ; a 6 a a r s b C ",
"S C f G 9 a a a h h h h a h a a h a a h h h a h i 8 #.o.. P @...- a a h a a a a a a a a a a a a a a a a i K M B C ",
"S C f G a a a a h a a a a a a a h a h h h h a h a # O.X.  : +.H $ a a a a a h a a h a a a a a a a a a a i J M b b ",
"S S h G a h 6 ; ; ; 6 ; ; ; a h h 6 ; ; ; ; ; ; ; @ o o + X o o = ; ; ; ; ; ; ; a h a ; ; 6 5 ; ; ; ; a a G M b b ",
"S b h 5 9 a = 9 a a a a 9 5 6 h a 5 9 9 9 9 9 9 5 5 a 9 9 9 9 5 ; 6 6 6 6 6 6 ; a h 9 ; a 9 9 9 9 9 ; a a 7 s b b ",
"b b h 5 a a ; a a a a a a 6 6 h a 5 a h a a a a 9 5 a a a a a 6 ; a a a 9 a a ; a a 9 5 h a a a a a = a a 7 h b b ",
"b C h 5 a a ; a a a a a a 9 ; h a 5 a h a a a a 9 5 a a 9 a a 6 5 a a a a a a ; 9 a 9 ; a a a a a a = a a 7 h B b ",
"b C g 5 a a ; a a a a a a 9 ; a a 5 9 a a a a a 9 5 a a 9 9 9 5 5 a a a a a a ; a a 9 = a a a a a a = a a 7 a b b ",
"b C g 5 a a ; 9 a a a a a 9 9 a a 5 9 a a a a a 9 ; a a 9 9 a 5 5 a a a a a a ; 9 a 9 ; a a a a a a = a a 9 a b b ",
"b b h 5 9 a ; 9 a a 9 a a 9 ; a a 5 9 a a a a a 9 5 a a 9 a a 5 5 a a a a a 9 = a a 9 ; a a a a a a = a a 9 a g b ",
"k b h 5 9 a = 9 a a 9 a a ; ; a a 5 9 a a a a a 9 ; a a 9 a a 5 5 a a a a a 9 = a a 6 = a a a a a 9 = a a 9 a j b ",
"k b a 5 a a = 9 a a a a a 9 ; a a ; 9 a a a 9 a 9 ; a a 9 a a 6 5 a a a a a 9 = a a 6 ; a a a a a 9 = 9 a 5 a b b ",
"k b a 5 a a ; a a a a a a 5 5 a a ; 9 a a a 9 a 9 ; a a 9 a a 6 ; a a a a a 9 = a a 6 = a a 9 a p 9 = 6 a 5 a b b ",
"k b a ; 9 a ; 9 a 6 p a a 5 5 a a ; 9 a a a a a 9 5 a a 9 a a 6 = a a 6 a a 6 = 6 a 6 = 9 6 p p p 9 = 6 a 5 a d k ",
"k b a ; ; a = 6 9 6 p a a 5 5 a a = 9 a a a a a 5 ; 9 a 6 9 a 5 ; a 6 6 a a 6 = 6 a 6 = 6 6 6 p a 9 = 6 a 5 a d k ",
"k k a = ; a = 5 9 6 a a a 5 ; a 6 = 5 6 a a a p 5 = 9 a 6 6 a 5 = 9 6 a a a 6 = 6 a 6 = 9 9 6 6 a 9 = 6 a 5 a d d ",
"d d a ; 5 a ; 5 6 6 a a a 5 ; a 6 = 5 6 p p a a 5 = 9 9 6 9 a 5 = 9 a a a a 6 = 6 a 6 ; a 9 9 6 9 9 = 6 9 5 9 d d ",
"d d a = ; a = 5 6 6 6 6 a 5 ; a 6 ; 9 a a a a a 5 = 9 a 6 9 a 5 = 6 9 9 9 6 6 = 6 a 6 = p 6 a a a 9 & ; ; 5 9 g d ",
"h d a = ; a = 5 ; 6 6 6 a ; ; a 6 = 5 a 9 9 9 a 5 = 9 9 6 9 a ; = 6 9 9 9 9 6 = 6 a ; = 6 9 9 9 a 9 & ; 6 5 9 h d ",
"d h 9 = ; a = 5 6 6 9 a a ; ; a 6 = 5 6 6 6 9 9 ; = 6 9 6 9 a ; = 9 9 9 a 9 6 = 6 a 5 = 6 6 9 9 a 6 & ; 6 5 9 h h ",
"h h a = ; a & ; a 9 9 a a ; ; a 6 = 5 6 6 6 9 a ; = 9 9 6 9 a ; = 9 6 6 9 9 6 = 6 a ; = 6 6 9 9 a 9 & ; 6 5 9 h h ",
"h h 9 = ; a & ; a a a a 9 = ; a 9 = ; 6 6 6 6 a ; = 9 9 6 9 a ; = 6 a 9 9 9 6 & 6 a ; = 6 9 9 9 9 9 & 6 6 5 9 h h ",
"h h 9 = ; 9 & ; a 9 a a 9 ; ; a 9 = ; 9 6 6 a a ; = 9 9 6 9 a ; = 6 a 9 9 9 6 & 6 a ; & 9 9 9 9 6 5 & ; 6 5 9 h h ",
"h h a @ ; 9 & ; 6 6 6 6 9 = = a 9 = ; 6 6 p 9 a ; = 6 9 6 9 9 ; = 6 6 6 6 9 5 & ; a ; & 9 9 6 6 ; ; & ; ; = 5 a h ",
"a h 9 8 5 6 & ; ; ; ; 6 6 = = a 6 = ; ; ; ; 6 6 ; = 6 6 ; 6 6 ; = 6 ; ; ; 6 5 @ ; u ; & 6 6 ; ; ; ; & ; ; w 7 a h ",
"a h 5 e 5 ; & ; 6 ; ; ; 6 = = p ; & = ; ; ; ; ; = & ; ; ; ; ; ; & ; ; ; ; ; ; @ ; ; = @ ; ; ; ; ; ; @ ; & y 8 a a ",
"a a 5 e 5 ; & = ; ; ; ; ; & & ; ; & = ; ; ; ; ; & & ; ; ; ; ; & & ; ; ; ; ; ; @ ; ; = & ; ; ; ; ; ; @ ; & J 8 u a ",
"a a ; 8 = ; & = ; ; ; ; ; & & ; ; & = ; ; ; ; ; = & ; ; = ; ; & & ; ; ; ; ; ; @ & ; & & ; ; ; ; ; ; + ; & < 5 a 9 ",
"a a ; + & ; @ & & & & & & * & ; ; & & & & & & & & & ; ; = ; ; & @ & & & & & @ + = ; & + & & & & & & + = & & 5 a 9 ",
"9 a ; @ & & & & & & & & & & & = ; & & & & & & & & = ; ; ; ; = = & & @ @ & & & @ & ; & @ & & & @ @ @ @ = & = 5 a 9 ",
"a a ; + & = = = = ; ; ; ; = = = ; ; ; ; ; ; = = ; = = = = = = = ; ; ; ; ; ; ; = = = = = = = = = = = = = = # 5 6 9 ",
"9 p ; + + * * * * & * * & & * * * & * * * * * * * * * * * * * * * * * % % % % % % % % % % % % % % % % % $ + ; 6 9 ",
"9 5 = O > , , < , < < < , , < < < < < < < < 2 2 1 1 1 1 < 1 1 1 1 2 2 2 2 2 2 2 2 2 2 2 2 2 3 3 2 2 3 3 4 1 = 6 5 "
};
