/* XPM */
static char *_b59c02f1e364c7eda14e4b3f4bfd98dmayCMEH6SY95xr8b[] = {
/* columns rows colors chars-per-pixel */
"64 85 255 2 ",
"   c #1B1D2B",
".  c #151827",
"X  c #1B1D33",
"o  c #0E142E",
"O  c #1D212C",
"+  c #1D2237",
"@  c #2B232A",
"#  c #37292B",
"$  c #252839",
"%  c #352B33",
"&  c #382D36",
"*  c #3C3239",
"=  c #3B3336",
"-  c #22191A",
";  c #48322D",
":  c #433435",
">  c #4B3B3B",
",  c #46383A",
"<  c #563B37",
"1  c #482C2A",
"2  c #623C37",
"3  c #5B433C",
"4  c #57453D",
"5  c #4B423D",
"6  c #66463D",
"7  c #79533E",
"8  c #252B45",
"9  c #2C3349",
"0  c #383847",
"q  c #343C53",
"w  c #2C3953",
"e  c #1E2B47",
"r  c #473D43",
"t  c #523F40",
"y  c #3A445A",
"u  c #3C4864",
"i  c #4A4446",
"p  c #544442",
"a  c #5B4543",
"s  c #544B4C",
"d  c #5A4A48",
"f  c #444859",
"g  c #564C52",
"h  c #5B5354",
"j  c #5B5659",
"k  c #56514F",
"l  c #644A44",
"z  c #674C47",
"x  c #764C45",
"c  c #6C524B",
"v  c #685449",
"b  c #7B564B",
"n  c #7C5A4D",
"m  c #75554A",
"M  c #695A56",
"N  c #7C5C53",
"B  c #775B56",
"V  c #79645A",
"C  c #6B625D",
"Z  c #48546C",
"A  c #5B5C64",
"S  c #4A546E",
"D  c #675E64",
"F  c #5A6577",
"G  c #6A6566",
"H  c #766966",
"J  c #7B7473",
"K  c #7A777B",
"L  c #736E70",
"P  c #855C4C",
"I  c #825C53",
"U  c #865B57",
"Y  c #894F4A",
"T  c #89614E",
"R  c #856253",
"E  c #8C6452",
"W  c #89685C",
"Q  c #936453",
"!  c #9B6B56",
"~  c #956C5B",
"^  c #9B6C5B",
"/  c #976756",
"(  c #9C725C",
")  c #95715C",
"_  c #906853",
"`  c #A36D56",
"'  c #A36D5B",
"]  c #A66659",
"[  c #A3725D",
"{  c #AA735D",
"}  c #886A65",
"|  c #936B63",
" . c #986D67",
".. c #877369",
"X. c #9D7462",
"o. c #9B756A",
"O. c #9D7B6C",
"+. c #967667",
"@. c #877A77",
"#. c #9C7D73",
"$. c #957A75",
"%. c #A46E62",
"&. c #A37664",
"*. c #AB7662",
"=. c #A57A65",
"-. c #AA7B65",
";. c #A57B6A",
":. c #AA7D69",
">. c #A3766A",
",. c #B27B64",
"<. c #B47A68",
"1. c #A27D73",
"2. c #AA7C72",
"3. c #B17669",
"4. c #855F63",
"5. c #9A8578",
"6. c #8F8677",
"7. c #AC826B",
"8. c #A6826A",
"9. c #B3826D",
"0. c #A48474",
"q. c #AC8473",
"w. c #AD8975",
"e. c #AC8C7B",
"r. c #A5877A",
"t. c #B38574",
"y. c #B38A74",
"u. c #B38D7B",
"i. c #B98A77",
"p. c #AA947B",
"a. c #B4917D",
"s. c #B9947E",
"d. c #C28676",
"f. c #586783",
"g. c #5D708E",
"h. c #6A7A94",
"j. c #6E788D",
"k. c #6E7EA2",
"l. c #8B7D81",
"z. c #788498",
"x. c #6E819B",
"c. c #7989A6",
"v. c #7890B4",
"b. c #7F9FC5",
"n. c #898686",
"m. c #988A86",
"M. c #9A918C",
"N. c #898B95",
"B. c #999495",
"V. c #8A9198",
"C. c #A68C84",
"Z. c #B78E83",
"A. c #AC9384",
"S. c #A89588",
"D. c #B49383",
"F. c #BA9584",
"G. c #B49589",
"H. c #BB9589",
"J. c #B49A8B",
"K. c #BB9B8B",
"L. c #B89985",
"P. c #A89A95",
"I. c #B49C93",
"U. c #BB9D91",
"Y. c #B59D98",
"T. c #B7A58A",
"R. c #ABA39A",
"E. c #BCA295",
"W. c #BCA49C",
"Q. c #BCAA9C",
"!. c #B5A597",
"~. c #B5AA91",
"^. c #8796AB",
"/. c #889BB5",
"(. c #929AA6",
"). c #97A6B8",
"_. c #94A3B1",
"`. c #A8A7A8",
"'. c #BCABA4",
"]. c #B9AAA6",
"[. c #BCB3AA",
"{. c #B6B7B8",
"}. c #A7AEB8",
"|. c #A49F9E",
" X c #C2978A",
".X c #C49D93",
"XX c #C78D81",
"oX c #C4A78D",
"OX c #C3A394",
"+X c #C3A59A",
"@X c #C4AA9C",
"#X c #CBAC9C",
"$X c #CAA697",
"%X c #C9B59C",
"&X c #D1AE9C",
"*X c #C2ACA4",
"=X c #CDADA3",
"-X c #C2AEA9",
";X c #C8ABA6",
":X c #D0AEA6",
">X c #CCB2A4",
",X c #C4B3AC",
"<X c #CBB4AC",
"1X c #C6B8A6",
"2X c #D2B3AB",
"3X c #D4B7A5",
"4X c #C5B6B2",
"5X c #CBBAB4",
"6X c #C8BBB6",
"7X c #D1BAB4",
"8X c #CCC2A8",
"9X c #C9C3B9",
"0X c #D7C9B8",
"qX c #DDD4B9",
"wX c #D2C6A9",
"eX c #E4CBBA",
"rX c #99ACC6",
"tX c #9BB3CB",
"yX c #9DB8D4",
"uX c #89AACD",
"iX c #A7B8CA",
"pX c #B5BCC5",
"aX c #A6BBD4",
"sX c #A8B2C4",
"dX c #93AFD9",
"fX c #9FC2DC",
"gX c #B8C4C9",
"hX c #A4C4DC",
"jX c #AAC5D9",
"kX c #B6CAD9",
"lX c #BED0D8",
"zX c #ADCCEB",
"xX c #ABC9E3",
"cX c #B3CCE3",
"vX c #B5CDE7",
"bX c #B8D2E8",
"nX c #B7D5F8",
"mX c #ADCDF0",
"MX c #9DC2EC",
"NX c #C6C9CA",
"BX c #D7D5C8",
"VX c #C4CDD5",
"CX c #C8D6D5",
"ZX c #D4D9D6",
"AX c #D0CEC7",
"SX c #E5DBCA",
"DX c #F6F1CE",
"FX c #C6D7E7",
"GX c #C5DCF7",
"HX c #C2CBE8",
"JX c #CAE7F8",
"KX c #D5EDF4",
"LX c #E8F9FB",
"PX c #F1F8EE",
"IX c #BEC3BC",
/* pixels */
"KXKXKXJXJXJXJXbXjXgX}.V.N.K G M i i s H , % * % @ % @ @ 0 0 % * @ # * % # * : # # # : , , : : = # @ % r % @ @ @ = s k d M M ..@.",
"KXJXJXJXJXJXJXcXiX)._.V.N.K G h s s s H g % * & & & % % i r % % % % = , , , : : : > > > > > > > = > i * % @ @ @ r g = : d h M H ",
"JXJXKXJXJXJXJXGXaX_.(.(.N.@.G h g h i M g @ & & % % % & r r % & , : # : r > > > > a a a a a d a d d r , * % @ @ s g @ , p 5 p M ",
"FXJXKXLXLXJXcXrX/.sX^.n.L j h k s s h s j # * * * * * % r r * : : : , > > < 3 3 3 l l v c v c c c l d a p p = = s r , - - - 1 5 ",
"GXFXJXJXbXtX_.tXiXsXN.L j s p s > s D h s i , * * , , = , , : > > < a a < l z z c c c m n n N m c B m m c l v d 4 p > H 4X6.6 5.",
"FXkX).).^.^.iX).V.j.A A D M i > = r h s r r , = : : : : t > < < z l c c c m N N b b b I P T E T W R R n V V V V v l > 6.5X1XA.p.",
"FXkXiX)._./.^.).).j.A A G j s # g i % p : > > p > > 4 a l 3 l l l z m b I I n b P P P E _ T _ ) ~ ~ ~ ~ E ) W R m v M v ....p.A.",
"KXlXiXjXaXkXgXpXN.A s i s i j @.H h > d d d d a p a 3 3 6 6 l 6 z m b b b b P P E Q T E ~ ( ( ^ ^ ~ X.X.) ) O.+.W V $.V } V ..6.",
"LXLXKXVXiX(.j.A A G j j M M J n.p d v v v v l l < 3 z c z 6 6 m b P P E E _ _ Q Q ! ! ! [ &.( [ ) ) ) X.=.( X.;.O.| 5.5.} c a H ",
"LXLXLXKXNX}.|.B.N.J @.K @.n.J j d p a l z z l 6 c m N N b n I E Q E E T Q _ / ! [ &.( ( &.=.&.&.8.;.=.7.7.;.X.;.q.;.O.r...M a M ",
"LXKXLXZX{.|.M.n.n.n.m.n.L @.C d a 3 z c z z z m N b n I R R E ~ T T E Q / ^ [ &.[ &.&.&.&.-.:.7.8.=.=.7.y.y.;.7.w.w.8.p.5.V d M ",
"PXPXPXIX`.n.G J @.G L H @.6.@.H V V m N N m I I b b I T E _ Q E E / ^ ^ ^ ( [ [ [ &.-.-.-.-.:.8.8.8.;.7.7.y.y.7.w.a.e.J.A.$.v B ",
"PXPX9X9X[.6.s j J L G G n.S.5.$.W W n R E I R b P E ~ ( ^ ~ ~ ~ ( &.&.&.[ -.-.&.-.-.-.-.:.:.7.;.8.7.8.7.7.y.s.e.e.G.J.I.I.C.H M ",
"PXSXBXBXR.C H j i G G J P.P.P.5.W R R I P P P Q ~ ^ X.&.( ~ ( &.-.=.-.=.&.&.-.-.-.:.-.-.:.:.7.7.;.7.7.7.q.u.u.G.G.J.I.W.W.P.@.d ",
"DXqX0X'.6.@.G k g i , M.].5X*XJ.0.X.E _ ~ ~ ~ ^ ( &.( ) ) ( &.&.&.&.=.-.-.-.-.:.-.:.7.-.-.-.7.7.-.7.9.7.w.u.a.U.Y.W.].'.'.!.m.d ",
"SXqX8XS...@.J h j s J `.,X5X>XJ.w.=.( ^ ^ ~ ^ &.) ) ! ( &.( &.&.&.-.-.-.:.9.7.-.-.:.7.7.7.7.-.&.=.7.7.7.q.w.J.U.W.].'.].[.].P.C ",
"DXDX8X6.p.S.6.M 5 M P.[.,X7XE.D.8.=.( ( ( [ ( ( ^ [ =.;.=.=.=.:.=.;.:.;.7.7.:.-.-.-.-.7.7.7.7.7.8.:.7.w.w.e.G.W.'.,X].[.[.].Y...",
"DXDXT.8XwXT.S.C p 6.[.].'.1XOXa.8.&.( ) ( [ [ [ ( &.;.;.=.=.-.:.;.:.:.;.:.:.-.&.-.7.:.:.7.7.7.8.7.8.7.w.u.Z.G.W.*X,X].,X4X].].M.",
"DXwXT.qX%X%XS.M J ].,XQ.Q.@XE.e.8.&.( ( [ &.&.&.&.&.=.=.=.&.=.:.=.;.;.:.:.:.-.-.:.7.7.7.7.7.7.-.7.7.y.u.u.D.U.W.].'.[.4X4X[.].].",
"DX%XQ.Q.T.~.5.V P.6X4X!.J.T.L.w.=.=.&.&.&.=.&.&.&.=.=.&.&.=.=.:.=.;.:.7.7.:.-.-.-.:.-.7.7.7.7.-.7.y.u.u.u.G.U.*X].,X4X6X6X4X,X[.",
"wX%X%XA.p.T.5...,X5X[.!.S.A.D.w.;.=.=.=.:.:.=.&.:.=.=.>.>.=.=.=.=.;.:.7.7.:.:.:.:.-.-.:.:.-.-.-.7.y.y.u.s.L.E.+X*X,X4X4X6X6X4X[.",
"qX8X%X%Xp.p...S.0X1X!.~.A.r.e.w.=.=.=.=.=.:.:.=.:.=.>.&.&.>.>.>.=.=.=.:.:.:.:.:.-.-.-.7.:.&.&.-.7.y.u.s.D.L.U.W.*X-X,X,X6X6X4X,X",
"qXwX%X@XT.p...%X0X1XQ.J.r.0.e.w.=.=.=.=.=.=.:.:.=.&.&.&.&.&.&.&.=.:.:.:.:.:.-.-.-.-.-.9.7.=.=.-.-.9.u.s.F.G.K.W.*X*X,X4X6X6X4X,X",
"wX%X~.T.oXs.5.0X0X!.!.J.0.0.8.q.=.=.=.=.=.=.=.=.&.&.&.&.&.&.&.&.&.=.=.=.:.:.-.-.-.:.:.:.:.=.:.:.-.7.y.s.F.L.U.E.W.*X,X4X6X6X6X4X",
"8X1X~.T.oXp.5.0X0XQ.J.J.0.0.8.8.X.&.&.=.&.&.&.&.=.=.=.&.&.&.;.&.&.=.=.:.:.:.:.:.-.:.7.:.:.:.:.:.7.7.u.s.D.G.U.E.W.'.-X,X,X4X4X6X",
"1X8X1X%XT.p.p.qX0XQ.J.D.e.O.8.8.=.X.X.&.&.=.&.X.=.=.;.=.&.&.&.X.&.&.&.-.:.:.:.-.-.:.7.7.:.:.7.7.7.y.s.F.G.J.I.W.W.'.-X,X,X,X4X6X",
"9X0X0X%XT.p.p.qX9XQ.T.D.0.O.;.8.X.X.X.&.&.&.&.X.X.X.X.=.=.=.>.X.&.=.=.=.:.:.:.:.:.:.7.7.:.7.q.t.q.w.u.D.D.G.U.E.W.'.*X-X,X,X4X6X",
"BXqXqX1X~.s.p.qXBX-XT.L.0.O.X.;.X.X.&.=.&.&.&.&.X.X.X.X.X.&.;.;.&.=.=.:.:.:.:.:.:.:.:.:.:.7.t.u.w.w.u.D.J.J.I.W.W.'.*X-X-X,X4X6X",
"BXBX0X1X%XT.p.SX0X1X5.L.;.=.X.&.[ ( &.&.&.&.=.=.=.=.=.=.&.;.=.=.&.=.&.:.:.=.:.=.:.:.:.:.:.7.t.u.u.u.D.J.K.E.!.'.].'.*X-X[.,X4X6X",
"BXBXBX8X8XT.A.SXBX5XA.e.8.X.=.( &.[ &.&.&.&.-.&.=.=.=.;.=.=.;.=.=.=.=.:.:.:.:.:.:.:.:.:.:.7.w.u.u.a.G.K.U.I.!.Q.*X*X-X*X'.-X4X9X",
"ZXBXBX8XwXT.J.SXAX1XE.0.X.=.&.[ [ [ ' [ &.&.=.=.=.=.=.:.;.=.:.=.:.:.:.:.:.:.:.:.;.:.7.:.7.q.w.u.D.G.J.E.E.E.!.Q.-X-X-X-X[.-X4X6X",
"ZXBXBX9X8XT.~.SX0X1XJ.0.X.) ( &.^ ' ' [ [ [ &.&.:.:.:.7.:.:.:.:.:.:.:.:.:.=.=.=.=.:.7.7.q.q.u.u.L.G.J.E.W.W.W.W.-X-X-X,X,X,X5X5X",
"CXZXBX0X1XT.8XBX1XQ.A.;.( ( ) ( / ' [ { { [ [ *.*.-.:.:.:.7.7.:.:.:.:.:.-.-.-.:.-.:.:.q.w.q.u.D.G.J.U.E.+XW.W.*X-X,X,X*X,X<X<X<X",
"ZXCXZXAX[.~.qXqX,XI.0.X.) ! ) ) [ [ ! ` ' ' ' { *.-.-.:.:.7.7.7.:.:.:.:.:.:.-.-.:.:.:.q.t.u.u.D.G.J.K.U.E.W.W.'.-X*X,X,X,X,X<X<X",
"CXCXZXAX[.[.8X1XM.6.+.+._ / ( ) [ ( ` ' ` ` ` ' [ [ *.-.:.:.:.:.:.:.:.:.:.:.-.&.-.-.:.:.t.s.u.D.L.L.K.K.E.W.W.*X-X'.,X,X<X<X<X<X",
"FXZXZXZXBX4X].m.H M N W _ E W ) ( [ [ { { ` ` { ` [ { -.:.:.-.-.-.:.:.:.:.:.-.-.-.-.:.:.t.s.i.s.F.L.K.K.E.E.W.*X-X*X,X,X5X5X5X<X",
"CXCXZXZXBX[.R.H v d l z c n W W X.&.&.[ [ ' ` ` { { { [ *.-.-.-.-.-.:.:.:.-.-.-.,.-.,.,.9.i.i.s.F.F.F.L.K.E.E.+X,X,X,X4X5X5X5X5X",
"KXKXZXZX{.9X4X@.V M v a 3 l c N W ~ X.&.' ' ` ` { { { { *.-.-.-.*.-.-.-.-.-.*.:.,.:.,.9.9.i.i.s.s.s.s.F.K.U.U.W.*X-X<X5X5X5X5X<X",
"pX_.N.V.n.n.J H C M d 4 > 4 4 3 z n W ~ ^ ^ ! ` ` { { { *.*.*.*.*.-.*.:.,.,.*.,.,.*.,.9.9.9.i.i.i.u.i.s.L.K.U.+X*X,X,X5X6X5X6X!.",
"}.(.gXZXZXAX9XP.6...H M d : : : ; < l b R Q / / ` ` ` { { { { { { *.*.*.,.,.,.,.,.,.,.9.9.i.i.i.y.y.u.u.F.F.K.+X*X<X<X5X6X7X5Xm.",
"`.NXCXCXCXZXAX].6.@.H C G M g : # ; ; l m b P Q Q ! ` ` { { { { ` { ,.,.,.,.,.,.{ <.<.,.t.i.y.i.7.y.i.s.F.D.K.+X@X<X5X5X6X0X4XH ",
"VXVXNXCXCXNX{.].H p 5 s > r j h t # 1 1 ; 6 m P P Q / ` ' { { { *.{ { ,.,.,.,.,.9.,.,.,.9.t.y.y.y.t.w.u.u.D.G.U.@X,X5X6X6X0X].d ",
"VXCXCXCXCXNX9X[.@.M M J * @ r j G v , # ; ; 2 6 x P Q / ! ` ' ' ` { ,.,.,.-.<.,.-.-.-.:.:.q.w.w.q.0.q.q.q.r.A.G.W.'.,X6X9XAXm.k ",
"gXlXCXCXCXNX9X9XS...m.H # = , H @.H H a 1 ; 2 6 x P P Q / ` [ [ ,.,.*.,.:.-.-.-.&.&.&.&.;.0.1.O.O.+.+.o.O.#.5.5.S.I.].[.6X6XJ M ",
"kXkXkXkXlXNXNX9X!.5.C...p , p H $...} } z 1 < 6 I ~ ^ / ! ! ' [ -.,.:.:.-.&.&.&.^ ~ ~ ~ | W N z z m c m N W } ..5.m.S.P.].[.@.n.",
"kXkXkXkXkXVXNX9XQ.E.A.$.c p d ..5.$...V } } 2 < x ~ &.&.' ` ' *.-.7.:.=.&.X.~ T R b x 6 6 < < < a z l 3 a l c V @.@.n.M.P.`.P.`.",
"cXcXcXkXkXlXNX9XQ.E.U.C...c M $.#.O.} B B #.#.< x  .:.9.-.[ [ [ -.7.7.7.=.X.X.X.W m < < z v v M B H V B B B B H H @.n.B.`.`.P.`.",
"cXbXcXcXkXVXCX9X!.OXJ.D.+.} } | | | W N m }  .< z  .q.w.;.&.=.:.7.w.u.u.u.u.u.;.6 6 c B v p > : : > p v M H ..@.@.@.@.@.`.}.`.IX",
"jXcXcXbXbXVXAX,XT.E.K.D.5.W n I n R N U B } B ; l 3 3 6 6 6 z W +.p.OX$X.XOX1.6 z R B a ; , = * 5 j G a > p H ..l.P.W.'.P.`.`.NX",
"jXjXjXcXcXlXAX,XK.L.A.e.0.+.E I b x x x x B } > c ....W c c z z v c | D.G.} m R | z m 3 ; , = i i k M.m...M p ....m.'.W.`.}.`.V.",
"jXjXhXjXkXlXNX'.J.L.p.r.0.O.| W I N U N N 4.} < V G.G.| P P ~ ~ +.R m 3 @.- V H.1.m c 3 # = = i , i m.P.W.Y...M H m.'.M.B._.}.).",
"kXjXjXjXjXkXNX].A.D.A.0.O. .| W U U N 4.4.} $.l 0.D.~ b Q %.&.:.w.O.o.W.M d I.A.#.W N c z > : : : H S.S.I.P.P.@.@.P.].B.`.}.sXsX",
"jXbXcXjXkXgXNXR.S.A.e.O.o. .W U U N U } } C.C.z @XZ.P ^ ! *.<.i.F.r. .+X3 6.Y.C.+.W I b W V B B } 5.5.C.#.m.Y.C.S.].{.(.}.sXpXiX",
"_.jXcXcXcXlXNXR.S.r.0.O.+.o. .|  .#.#.C.m.V } W E.q.=./ ' &.9.s.oXF.o.A.B S.Y.I.5.| N x x W |  .$.#.#.O.r.U.W.W.W.6X{.}.sXiXaXiX",
"V.iXkXcXvXVXVX].C.r.1.;.X.o.O.1.e.C.r.I.$.- l V J.3Xt./ ^ :.y.F.$X$Xw.r.V '.!.W.A.o.| R I m W | | | #.0.A.W.*X'.].6XsXsXiXiXiXaX",
").jXkXcXbXVXNX].C.0.;.>.o.O.O.1.0.O.1.r.S.m.3 $.eX#X&.^ ( =.7.L.&X&XH.} l m.'.W.G.#.o.o.| | | o.o.1.r.D.U.;X@X'.4X{.iXiXaXaXyXyX",
"bXcXlXFXVXVXpX].C.0.;.;.;.1.;.O.o.>.o.0.1XQ.$.0X0XF.^ ' ^ &.q.H.:X3XOXW a 5 R.'.Y.S.r.1.1.1.#.O.O.0.e.J.+X>X;X*X{.pXaXjXhXhXyXyX",
"aXGXFXkXkXVXgX`.S.r.1.;.;.>.o.o. .|  .r.>Xp.Q.eX3Xw./ ' %.>.q.OX3X>X=XW M V P.,X-X*XU.e.1.0.r.r.e.D.G.K.+X@X@X*XpXgXjXhXhXxXxXfX",
"^.iXGXGXbXlXgX`.P.C.0.;.>.>.o.| | | | D.A.r.7X3X$X&.Q ] %.>.t.$X3X@X=X$.$.W.Y.;X*X<X;XU.C.0.r.e.D.L.K.OX@X;X*X[.pXaXjXhXfXhXhXfX",
"HX).uXnXGXFXVX{.P.S.C.1.O.O. .~ W W | A.W +X3X3XF.~ Q / ' >.s.#X>X#X>Xr...7X;X.XU.E.@X@XOXL.D.Z.D.L.OXOX@X@X'.[.pXaXhXhXfXhXfXyX",
"GXGXyX/.aXFXFXVX`.P.A.#.o.| W W I W 0.5.J.3X3X&Xw.^ ~ ^ %.=.H.#X#X@X#XD.N =X#X.XH.H.K.OXOXOX XF.F.L.K.U.E.W.].{.aXjXhXhXhXhXhXhX",
"nXnXJXbXrX/.aXHX`.P.S.5.| | | | #.r.N r.OX&X%XOX;.^ ^ %.>.2.K.#X=X#X$XK.} U.#XH.Z.H. XH.L.F.F.s.D.G.J.J.K.E.].{.aXhXhXhXhXhXjXjX",
"nXnXnXnXGXjXsX_.|.B.Y.S.C.C.C.r.+.b n w.$X3X#XL.X.^ ^ &.2.Z..X=X#X#X&XD.D.r.#X.XZ.Z. X XH.H.G.e.D.D.G.J.K.E.[.pXjXhXxXxXhXjXjXtX",
"MXMXmXnXnXFXFXVXV.n.C.r.5.+.W b b E m D.&X&X$Xy.^ ^ %.&.q..X+X;X#X:X#XL.OXA.G.U.Z.Z.Z. XH.L.G.D.G.G.G.J.J.!.{.iXiXhXhXyXaXjXiXx.",
"uXdXdXfXxXvXlXFX`.M.E.0.~ E P P P 7 W &X#X#XF.&.^ ^ %.:.u..X=X#X@X&X#XK.+X=X#.G.Z.Z.Z.F.F.F.F.F.D.D.G.I.|.{.VXkXjXcXjXjXkXiXh.rX",
"uXuXv./.tXjXvXHX{.6.~.a.( ! Q T P 7 G.OX:X$Xt.&./ / %.2.Z..X#X#X>X>X@XK.E.=XG.1.K.D.e.D.H.F.H.H.L.D.J.].`.gXHXbXbXcXbXFXaXh.rXjX",
"b.b.v.v./.iXjXjXpXB.!.s.:./ T T P X.#X#X3XF.7.^ / ^ &.t. X+X=X=X=X:X+XE.OXU..Xe.0.A.L.G.D.F.F.D.G.D.P.B.(.kXvXcXcXbXcX).c.aXjXtX",
"b.v.k.c.^.rXyXiXsXV.Q.s.&./ ~ ( _ oX=X3X#Xu.=.^ Q ^ =.u..X#X=X2X:X:X+XE.+XG.D.L.D.O.0.L.L.L.J.L.D.G.S.n.pXbXbXbXcXrXc.rXbXbXzXxX",
"/.c.h.z.^.).rXyXiXN.!.F.8.[ w.X.7.3X3X>XL.7.X.^ Q %.2.Z..X=X2X2X<X<X=X+XU.F.u.F.H.H.e.O.r.J.J.E.I.I.n.`.kXjXaX/.c.).xXbXcXvXbXzX",
"/.c.j.z.^.).yXaXtXj.R.L.a.F.a.8.L.3X:XOXe.=.[ Q Q %.t.F.$X:X2X<X<X<X2X=XD.F.F.F.F. XOXU.p.5.5.5.5.$.l.V././.).tXvXbXvXxXbXzXzXzX",
"/.j.F z.^.rXtX/.z.G P.~.J.L.L.0.K.$X#XF.;.=.^ Q / %.t. X.X=X2X<X7X2X:X:XG.D.L. X X XOX$X@X@XOXJ.m.J K pXbXvXnXbXvXvXzXzXxXxXzXxX",
"z.g.F z.^.^.h.F F A B.!.!.A.5.W J.#XK.q.=.&.^ / ] %.t. X.X#X=X2X7X<X2X:XH.D.K.oX X$X#X$X@X@XOXS.M.K z.).cXbXvXvXbXbXvXmXzXzXzXzX",
"^.j.j.z.z.h.y Z y A n.m.@.H C M A.#XD.7.&.' ] / ] 3.i.Z..X$X=X2X2X2X2X=X.X X X#XoX&X$X#X#X#XJ.S.L G j.h.c.yXxXbXcXbXzXmXmXmXvXzX",
"^.z.z.z.j.y w f $ f K 6.G M M M C.+Xe.:.&.] ] ] { <.i.i. XOX=X2X2X2X2X2X+X X$X#X3X$X%X&X#XE.S.@.G A F h.h.h./.tXvXzXzXmXmXmXvXzX",
"z.z.z.g.S X q 9 . 0 K J s i i p ..E.q.:.-.] Q ] { <.i.i. X$X=X=X2X2X2X=X+X+X+X#X&X3X&X>X>XS.$.H n.f S F f.f.h.g./.hXbXxXvXmXzXvX",
"c.x.f.F 9 o 8 $ . $ L L j j , = v U.u.:.' ] ] ] *.<.i.XX XOX:X2X2X>X>X+XY.*X*X@X<X3X1X1XQ.6.l m.n.q S S S u g.S f.v.rXxXvXzXzXvX",
"h.f.S Z o X $   . . A n.M s i , # C.s.:.' ] ] ] *.<.i.XX.X$X=X2X2X<XY.I.I.P.!.W.'.<X9X1XC.v } !.A q Z u u w f.S e h.k.^.aXvXbXvX",
"f.Z F 9 o X $ X . . i J @.C i i - ..D.-.%.] ] ] <.d.d. X$X$X=X2X*XS.$.5.P.M.M.M.P.].6X]...d G.C.0 f Z q w e S f.X u k.h.c.tXbXbX",
"y S Z o   O     . O % h m.H M 5 @ v u.:.] ] ] ] <.d.XX X.X#X=XY.@.G J @.J J J J @.n.].m.d 5.I.C & Z y q 9 + u f.w o g.^.h.x./.cX",
"9 F 9 o   O     . .   i L 5...V # ; r.:.] ] ] { <.d.XX.X#X+XC.d i s M G L G j G G @.n.v ..J.$., 0 Z y 9 8 8 u S q o q z.^.c.x.c.",
"y f o X   O     .   . 0 j @.C.+.6 < | 2.] ] ] *.3.i.XX.XY.@.i i i i g g M L j K L n.@.M C.r.d % q Z y 9 8 8 y y 8 + 8 F ^.^.c.c.",
"f 9   X   O         . $ j J C.0.V m x  .%.] *.3.<.i.H.C.H = h j j i g M j G G L K J @.m.r.B > % y u q 8 + 8 y q + X X u h.c.c.c.",
"0 + X X   O       . . * j H 5.0. .P Y Y Y ] ^ %.%.>.| < 1 : g s j s D D C L G n.K G @.C.W 3 = & f u 9 $ + 8 y 9 X + + 9 S g.h.c.",
"$ O + X   O       . . i i h $.0.q.P Y Y Y x x x 2 1 < z a d M H M H H @.@.@.n.@.H ..5.V 6 < @ 0 f y 8 $ + 9 y 8 + + + 8 S f.f.g.",
"$ + + X   O         O . = M V O.+.Q Y Y Y Y Y b x m U } } B } $.$.$.m.m.m.m.J M ..5.V 6 3 1 % 0 y q $ + X 8 q $ + + X X Z f.Z Z "
};
