/* XPM */
static char *c59d7cb1da5648f299e44dbc2b365366r473MD0N6hDVH2Yl[] = {
/* columns rows colors chars-per-pixel */
"64 64 162 2 ",
"   c #252A36",
".  c #242D3D",
"X  c #292F3F",
"o  c #2D313D",
"O  c #30333C",
"+  c #242F41",
"@  c #253041",
"#  c #2B3544",
"$  c #2C3846",
"%  c #373A43",
"&  c #303949",
"*  c #393F4B",
"=  c #3B414D",
"-  c #3E4450",
";  c #41454E",
":  c #424652",
">  c #414954",
",  c #464F5E",
"<  c #484E5A",
"1  c #4B515D",
"2  c #50545F",
"3  c #4C5464",
"4  c #4F5867",
"5  c #4F5769",
"6  c #4E5969",
"7  c #505665",
"8  c #535966",
"9  c #505669",
"0  c #51596A",
"q  c #585E6C",
"w  c #575F71",
"e  c #585F72",
"r  c #55616F",
"t  c #5A626F",
"y  c #566271",
"u  c #5B6372",
"i  c #5F6A76",
"p  c #616775",
"a  c #636B76",
"s  c #606679",
"d  c #646C7B",
"f  c #686F7F",
"g  c #67717D",
"h  c #69727E",
"j  c #6D7583",
"k  c #6F7986",
"l  c #6F7688",
"z  c #707683",
"x  c #727A86",
"c  c #737C8B",
"v  c #8C8F96",
"b  c #9B9FA9",
"n  c #9DA4AE",
"m  c #9FA5B1",
"M  c #9FA8B1",
"N  c #A3A4AB",
"B  c #A1A6B2",
"V  c #A6ABB5",
"C  c #AAADB4",
"Z  c #A9ACB8",
"A  c #AEB1B6",
"S  c #AEB2BA",
"D  c #B1B4B7",
"F  c #B2B5BB",
"G  c #B5B8BF",
"H  c #BBBBBF",
"J  c #AEB6C3",
"K  c #B0B7C4",
"L  c #B1B9C5",
"P  c #BDBEC2",
"I  c #B3BBC8",
"U  c #C4C4C6",
"Y  c #C5C4C9",
"T  c #C6C9CE",
"R  c #CECED0",
"E  c #CED3D7",
"W  c #D0D0D2",
"Q  c #D0D3DA",
"!  c #D7DADF",
"~  c #D7DAE3",
"^  c #DBDEE7",
"/  c #DEE2E5",
"(  c #EBEFF3",
")  c #E9EDF2",
"_  c #EEEFF1",
"`  c #EAEDF4",
"'  c #EBEEF5",
"]  c #EAEFF5",
"[  c #EAEEF7",
"{  c #E9EEF4",
"}  c #EEEFF1",
"|  c #EBEFF8",
" . c #ECF0F3",
".. c #EDF0F5",
"X. c #EDF0F7",
"o. c #EEF1F8",
"O. c #F0F1F5",
"+. c #F0F4F7",
"@. c #F1F1F1",
"#. c #FCFBF7",
"$. c #F1F5F8",
"%. c #F4F5F9",
"&. c #F5F6FA",
"*. c #F7F6FB",
"=. c #F6F7FB",
"-. c #F6F7FC",
";. c #F5F7FC",
":. c #F8F7FC",
">. c #F5F9FC",
",. c #F5F8FD",
"<. c #F7F8FC",
"1. c #F7F8FD",
"2. c #F6FAFD",
"3. c #F6F9FE",
"4. c #F7F8FC",
"5. c #FBFBF9",
"6. c #F9F9FB",
"7. c #F9FBFA",
"8. c gray98",
"9. c #FBFBFB",
"0. c #FAFCF9",
"q. c #FAFCFB",
"w. c #FBFDFA",
"e. c #FDFDFB",
"r. c #FCFCFA",
"t. c #FEFDFB",
"y. c #FCFEFB",
"u. c #F9FAFC",
"i. c #FAFAFC",
"p. c #FAFBFD",
"a. c #FBFBFD",
"s. c #FAF9FE",
"d. c #F8FBFF",
"f. c #FBFAFF",
"g. c #FDFBFC",
"h. c #FCFAFD",
"j. c #FDFBFE",
"k. c #FBFDFC",
"l. c #FBFCFE",
"z. c #FBFFFF",
"x. c gray99",
"c. c #FDFDFD",
"v. c #FEFCFD",
"b. c #FCFEFD",
"n. c #FEFEFC",
"m. c #FFFEFC",
"M. c #FEFFFD",
"N. c #FFFFFD",
"B. c #FCFCFE",
"V. c #FDFCFF",
"C. c #FDFDFF",
"Z. c #FFFDFE",
"A. c #FEFCFF",
"S. c #FDFFFE",
"D. c #FDFEFF",
"F. c #FCFFFF",
"G. c #FEFEFE",
"H. c #FEFEFF",
"J. c #FFFEFF",
"K. c #FEFFFF",
"L. c white",
"P. c #FEFEFE",
/* pixels */
"L.L.L.L.L.L.L.L.L.L.L.L.L.L.L.L.L.L.L.L.L.L.L.L.L.L.L.L.L.L.L.L.L.L.L.L.L.L.L.L.L.L.L.L.L.L.L.L.L.L.L.L.L.L.L.L.L.L.L.L.L.L.L.L.",
"L.L.L.L.L.L.L.L.L.L.L.L.L.L.L.L.L.L.L.L.L.L.L.L.L.L.L.L.L.L.L.L.L.L.L.L.L.L.L.L.L.L.L.L.L.L.L.L.L.L.L.L.L.L.L.L.L.L.L.L.L.L.L.L.",
"L.L.L.L.L.L.L.L.L.L.L.L.L.L.L.L.L.L.L.L.L.L.L.L.L.L.L.L.L.L.L.L.L.L.L.L.L.L.L.L.L.L.L.L.L.L.L.L.L.L.L.L.L.L.L.L.L.L.L.L.L.L.L.L.",
"L.L.L.L.L.L.L.L.L.L.L.L.L.L.L.L.L.L.L.L.L.L.L.L.L.L.L.L.L.L.L.L.L.L.L.L.L.L.L.L.L.L.L.L.L.L.L.L.L.L.L.L.L.L.L.L.L.L.L.L.L.L.L.L.",
"L.L.L.L.L.L.L.L.L.L.L.L.L.L.L.L.L.L.L.L.L.L.L.L.L.L.L.L.L.L.L.L.L.L.L.L.L.L.L.L.L.L.L.L.L.L.L.L.L.L.L.L.L.L.L.L.L.L.L.L.L.L.L.L.",
"L.L.L.L.L.L.L.L.L.L.L.L.L.L.L.L.L.L.L.L.L.L.L.L.L.L.L.L.L.L.L.L.L.L.L.L.L.L.L.L.L.L.L.L.L.L.L.L.L.L.L.L.L.L.L.L.L.L.L.L.L.L.L.L.",
"L.L.L.L.L.L.L.L.L.L.L.L.L.L.L.L.L.L.L.L.L.L.L.L.L.L.L.L.L.L.L.L.L.L.L.L.L.L.L.L.L.L.L.L.L.L.L.L.L.L.L.L.L.L.L.L.L.L.L.L.L.L.L.L.",
"L.L.L.L.L.L.L.L.L.L.L.L.L.L.L.L.L.L.L.L.L.L.L.L.L.L.L.L.L.L.L.L.L.L.L.L.L.L.L.L.L.L.L.L.L.L.L.L.L.L.L.L.L.L.L.L.L.L.L.L.L.L.L.L.",
"L.L.L.L.L.L.L.L.L.L.L.L.L.L.L.L.L.L.L.L.L.L.L.L.L.L.L.L.L.L.L.L.L.L.L.L.L.L.L.L.L.L.L.L.L.L.L.L.L.L.L.L.L.L.L.L.L.L.L.L.L.L.L.L.",
"L.L.L.L.L.L.L.L.L.L.L.L.L.L.L.L.L.L.L.L.L.L.L.L.L.L.L.L.L.L.L.L.L.L.L.L.L.L.L.L.L.L.L.L.L.L.L.L.L.L.L.L.L.L.L.L.L.L.L.L.L.L.L.L.",
"L.L.L.L.L.L.L.L.L.L.L.L.L.L.L.L.L.L.L.L.L.L.L.L.L.L.L.L.L.L.L.L.L.L.L.L.L.L.L.L.L.L.L.L.L.L.L.L.L.L.L.L.L.L.L.L.L.L.L.L.L.L.L.L.",
"L.L.L.L.L.L.L.L.L.L.L.L.L.L.L.L.L.L.L.L.L.L.L.L.L.L.L.L.L.L.L.L.L.L.L.L.L.L.L.L.L.L.L.L.L.L.L.L.L.L.L.L.L.L.L.L.L.L.L.L.L.L.L.L.",
"L.L.L.L.L.L.L.L.L.L.L.L.L.L.L.L.L.L.L.L.L.L.L.L.L.L.L.L.L.L.L.L.L.L.L.L.L.L.L.L.L.L.L.L.L.L.L.L.L.L.L.L.L.L.L.L.L.L.L.L.L.L.L.L.",
"L.L.L.L.L.L.L.L.L.L.L.L.L.L.L.L.L.L.L.L.L.L.L.L.L.L.L.L.L.L.L.L.L.L.L.L.L.L.L.L.L.L.L.L.L.L.L.L.L.L.L.L.L.L.L.L.L.L.L.L.L.L.L.L.",
"L.L.L.L.L.L.L.L.L.L.L.L.L.L.L.L.L.L.L.L.L.L.L.L.L.L.L.L.L.L.L.L.L.L.L.L.L.L.L.L.L.L.L.L.L.L.L.L.L.L.L.L.L.L.L.L.L.L.L.L.L.L.L.L.",
"L.L.L.L.L.L.L.L.L.L.L.L.L.L.L.L.L.L.L.L.L.L.L.L.L.L.L.L.L.L.L.L.L.L.L.L.L.L.L.L.L.L.L.L.L.L.L.L.L.L.L.L.L.L.L.L.L.L.L.L.L.L.L.L.",
"q.L.7.L.L.u.L.k.q.L.L.L.L.L.L.L.L.L.L.L.L.L.L.L.7.L.L.L.L.k.L.L.q.L.L.L.L.L.L.L.L.L.L.L.L.L.L.L.k.L.L.L.L.k.L.L.u.L.L.L.L.L.L.L.",
"L.L.L.L.L.L.u.L.L.L.L.L.L.L.L.L.L.L.L.L.L.L.k.k.L.L.k.L.L.q.k.L.L.L.L.k.k.L.L.L.L.L.L.L.k.k.k.k.L.L.L.k.L.L.L.L.L.u.L.L.L.L.7.L.",
"L.L.L.7.u.L.L.L.L.y.y.y.y.L.y.L.L.L.L.L.L.L.L.L.7.L.L.L.7.L.L.L.L.L.L.L.L.k.L.L.L.L.L.L.L.L.L.L.y.y.y.7.7.L.L.L.L.L.u.L.u.L.L.L.",
"L.L.L.u.U H R 7.L.L.L.L.y.L.L.y.L.L.L.L.L.L.L.L.L.L.L.L.k.L.L.L.L.L.L.L.L.L.g.L.L.L.L.L.L.L.L.L.y.y.L.y.L.L.L.L.u.W H Y u.L.L.L.",
"g.L.L.:.C N A _ L.L.L.L.y.L.y.L.g.g.g.L.L.L.L.L.L.7.L.L.L.L.7.L.u.L.L.L.L.L.L.L.g.g.L.L.L.L.L.L.g.L.L.g.L.L.u.L.O.D N C &.L.L.u.",
"L.g.L.u.F C P &.L.k.u.7.L.k.7.L.L.L.g.L.L.L.L.g.L.L.L.L.7.7.L.L.L.g.L.L.L.L.L.L.9.7.g.g.L.k.g.L.L.L.g.u.L.k.u.L.&.P C F &.L.u.L.",
"u.L.L.u.F C N ! 3.k.L.k.L.L.L.L.L.L.L.L.L.L.L.L.L.q.y.L.y.L.L.q.7.L.L.L.L.L.L.L.L.L.L.L.L.L.L.L.L.L.L.L.L.L.L.u.! N C F 3.L.L.k.",
"L.L.L.-.F C v O ~ ` o.` ( ( ` ` ( ( ( ( ( ( ( (  .(  . .( +./ D D ^ &.( ( ( ( X.( ( ( ( ( ( ( ( ` ` ` X.( ` | ^ % v C F &.L.k.L.",
"L.L.L.-.F V B 8 1 8 8 8 8 8 8 8 8 8 0 8 0 8 0 8 7 q 8 8 7 8 1 o   7 7 8 9 8 8 0 8 8 8 8 7 7 7 7 7 8 7 8 7 7 8 2 8 B C F &.L.L.L.",
"L.L.L.3.F V B 7 < 9 3 4 3 7 9 9 5 5 5 9 5 5 9 5 9 3 0 d d d s 0 q u d d d 5 9 5 9 5 9 5 5 5 5 4 4 4 4 4 4 4 4 1 7 B Z F &.L.y.L.",
"y.L.L.3.F V B 7 3 0 0 0 0 0 0 0 0 0 0 0 0 0 0 0 0 4 t k x x u 0 4 p x j x y 9 0 0 0 0 0 0 0 0 0 0 0 0 0 0 0 0 3 9 B V F &.L.9.y.",
"y.y.L.3.F V B 7 , 0 6 0 6 0 9 9 6 6 6 6 0 0 0 0 4 4 q j j c a 4 3 a x j j q 4 0 6 6 6 6 6 6 4 6 6 6 6 6 6 6 0 3 4 m V S &.L.9.y.",
"y.y.L.3.F V B 7 3 0 0 0 0 0 0 0 6 6 6 6 0 0 0 0 0 4 q c j x d 3 7 a x x c r 4 4 0 0 0 0 0 0 0 0 0 0 6 6 0 0 0 3 4 m V S -.L.L.L.",
"y.L.L.3.F V B 7 3 0 6 6 5 0 5 5 6 6 6 6 6 6 6 6 0 4 4 j c c d 3 > a x x h q 4 0 0 0 6 6 6 6 6 6 4 6 6 6 6 6 6 3 4 m V S 3.L.L.L.",
"y.L.L.u.F V B 7 3 0 6 0 6 0 6 0 0 0 0 0 0 0 0 0 9 0 3 0 f c d 3 * q z z q 7 9 9 0 0 0 0 0 0 0 0 9 7 9 0 0 0 0 3 4 m V S 3.L.k.L.",
"L.L.L.u.F V B 7 3 0 6 0 6 0 6 0 6 6 6 6 6 6 6 9 4 0 0 4 q j d 3 7 d z 7 3 4 9 9 9 9 6 6 9 9 9 9 9 7 9 0 0 0 0 1 3 m V S =.L.q.L.",
"y.y.L.=.F V B 7 1 0 0 6 0 6 0 6 6 6 6 6 6 6 6 0 6 4 5 0 4 q q 4 3 q q 4 0 4 5 0 0 0 0 0 0 0 0 0 4 7 4 7 4 7 7 3 3 m Z A =.L.y.y.",
"y.y.L.=.F V B 7 3 0 0 6 0 0 0 6 6 6 6 6 6 6 0 0 0 0 4 0 0 0 4 0 0 3 6 0 0 6 6 0 0 0 0 0 0 0 0 0 4 7 4 0 4 0 0 3 4 m Z A -.L.L.y.",
"y.L.L.3.F V B 7 3 0 0 5 0 0 0 5 0 0 0 0 0 0 0 0 0 5 4 0 9 9 5 4 0 4 0 5 0 9 4 0 0 0 0 0 0 0 0 0 5 0 5 0 5 0 0 3 9 m Z S -.L.L.L.",
"L.L.L.3.F V B 0 3 0 0 5 0 0 0 5 0 0 0 0 0 0 0 0 9 9 4 0 0 9 4 4 4 4 5 0 0 3 0 9 0 0 0 0 0 0 0 0 5 0 5 0 5 0 0 3 9 m Z S -.L.L.L.",
"L.L.L.-.F V B 0 3 0 0 5 0 0 0 6 6 6 6 6 6 0 0 0 0 4 4 0 4 7 0 7 4 0 0 4 0 4 0 0 0 0 0 6 0 6 0 0 6 0 6 0 5 6 0 3 9 m V A 3.L.L.L.",
"L.L.L.-.F V B 0 3 0 0 6 0 0 0 6 6 6 6 6 6 6 0 0 0 4 4 4 0 d p 3 3 i d 4 4 4 4 0 0 0 6 6 6 6 6 6 4 0 6 0 5 0 0 3 9 m Z A =.L.L.y.",
"L.L.L.-.F V B 7 1 0 0 4 0 0 0 6 0 0 0 0 0 0 0 0 5 0 3 5 d c d 4 4 d c a 9 5 0 5 0 0 0 0 0 0 6 6 6 0 6 0 5 6 0 3 9 m Z A =.L.L.y.",
"y.y.L.-.F V B 7 3 0 0 4 0 0 0 6 0 0 0 0 0 0 0 0 0 4 5 u l c a 3 4 d c x s 4 9 0 0 0 0 0 0 0 0 0 6 0 5 0 5 6 0 3 4 m Z A =.L.L.y.",
"7.L.k.u.F V B 7 , 4 6 6 6 4 6 0 6 9 9 9 9 9 9 9 3 0 q x z x p 7 3 d x j x q 4 9 9 4 5 4 5 4 5 5 4 6 6 6 5 6 0 3 3 V V F 3.L.L.L.",
"L.L.L.&.A A n 0 4 0 6 6 6 6 0 5 0 0 0 0 0 0 0 0 q 4 q j j x a 1 7 u j j j t 0 0 0 0 0 0 0 0 0 0 0 0 6 6 6 0 0 3 7 m Z S &.L.L.L.",
"u.L.L.3.F V m 0 , 5 9 5 0 5 0 5 6 4 4 4 4 4 4 4 4 4 q h j j p 3 3 i j j k 0 3 0 4 4 4 4 4 4 4 4 3 4 6 0 4 4 4 3 3 M V S u.k.u.L.",
"L.L.L.3.S V m 7 q y w q w w e w y r r r r r r r r 0 u c j c g 3 4 i c k c y y 0 r r y r r r r r y y q q q r q 0 q m Z S u.L.L.L.",
"L.L.L.-.L S B q   . . . . . . . . . . . . . . . . @ . # & # $ 0 0 & @ $ # . @ . + @ + @ @ @ @ @ . . @ . . . X . 7 B Z S u.L.u.L.",
"L.u.L.3.C N b ; V S K L L J K K J J J J J J J J L J K K J I B - = V I J J I J L K K J K L L L K L K J L L L J V : b V Z &.k.u.L.",
"L.7.L._ U P T E k.k.k.k.k.k.k.k.L.L.k.k.k.k.L.L.L.L.L.L.L.L.L.F F k.k.L.L.L.k.k.k.k.k.k.L.L.L.L.L.k.k.k.k.k.k.k.Q T H P @.L.7.y.",
"y.L.L.L.k.L.k.L.k.k.k.k.k.k.k.L.L.L.L.k.k.k.L.L.g.L.L.u.7.g.9.L.L.L.L.7.u.u.L.L.L.L.k.k.L.L.L.L.k.k.k.k.k.k.k.k.L.k.L.k.7.y.y.#.",
"L.L.L.L.L.L.L.k.L.L.L.k.k.L.L.L.L.L.L.L.L.L.L.L.L.L.L.L.L.L.L.L.L.L.L.L.L.L.L.L.L.L.L.L.L.L.L.L.L.k.k.k.k.k.k.k.u.L.L.L.L.y.y.y.",
"L.L.L.L.L.L.L.L.L.L.L.L.L.L.L.L.L.L.L.L.L.L.L.L.L.L.L.L.L.L.L.L.L.L.L.L.L.L.L.L.L.L.L.L.L.L.L.L.L.L.L.L.L.L.L.L.L.L.L.L.L.L.L.L.",
"L.L.L.L.L.L.L.L.L.L.L.L.L.L.L.L.L.L.L.L.L.L.L.L.L.L.L.L.L.L.L.L.L.L.L.L.L.L.L.L.L.L.L.L.L.L.L.L.L.L.L.L.L.L.L.L.L.L.L.L.L.L.L.L.",
"L.L.L.L.L.L.L.L.L.L.L.L.L.L.L.L.L.L.L.L.L.L.L.L.L.L.L.L.L.L.L.L.L.L.L.L.L.L.L.L.L.L.L.L.L.L.L.L.L.L.L.L.L.L.L.L.L.L.L.L.L.L.L.L.",
"L.L.L.L.L.L.L.L.L.L.L.L.L.L.L.L.L.L.L.L.L.L.L.L.L.L.L.L.L.L.L.L.L.L.L.L.L.L.L.L.L.L.L.L.L.L.L.L.L.L.L.L.L.L.L.L.L.L.L.L.L.L.L.L.",
"L.L.L.L.L.L.L.L.L.L.L.L.L.L.L.L.L.L.L.L.L.L.L.L.L.L.L.L.L.L.L.L.L.L.L.L.L.L.L.L.L.L.L.L.L.L.L.L.L.L.L.L.L.L.L.L.L.L.L.L.L.L.L.L.",
"L.L.L.L.L.L.L.L.L.L.L.L.L.L.L.L.L.L.L.L.L.L.L.L.L.L.L.L.L.L.L.L.L.L.L.L.L.L.L.L.L.L.L.L.L.L.L.L.L.L.L.L.L.L.L.L.L.L.L.L.L.L.L.L.",
"L.L.L.L.L.L.L.L.L.L.L.L.L.L.L.L.L.L.L.L.L.L.L.L.L.L.L.L.L.L.L.L.L.L.L.L.L.L.L.L.L.L.L.L.L.L.L.L.L.L.L.L.L.L.L.L.L.L.L.L.L.L.L.L.",
"L.L.L.L.L.L.L.L.L.L.L.L.L.L.L.L.L.L.L.L.L.L.L.L.L.L.L.L.L.L.L.L.L.L.L.L.L.L.L.L.L.L.L.L.L.L.L.L.L.L.L.L.L.L.L.L.L.L.L.L.L.L.L.L.",
"L.L.L.L.L.L.L.L.L.L.L.L.L.L.L.L.L.L.L.L.L.L.L.L.L.L.L.L.L.L.L.L.L.L.L.L.L.L.L.L.L.L.L.L.L.L.L.L.L.L.L.L.L.L.L.L.L.L.L.L.L.L.L.L.",
"L.L.L.L.L.L.L.L.L.L.L.L.L.L.L.L.L.L.L.L.L.L.L.L.L.L.L.L.L.L.L.L.L.L.L.L.L.L.L.L.L.L.L.L.L.L.L.L.L.L.L.L.L.L.L.L.L.L.L.L.L.L.L.L.",
"L.L.L.L.L.L.L.L.L.L.L.L.L.L.L.L.L.L.L.L.L.L.L.L.L.L.L.L.L.L.L.L.L.L.L.L.L.L.L.L.L.L.L.L.L.L.L.L.L.L.L.L.L.L.L.L.L.L.L.L.L.L.L.L.",
"L.L.L.L.L.L.L.L.L.L.L.L.L.L.L.L.L.L.L.L.L.L.L.L.L.L.L.L.L.L.L.L.L.L.L.L.L.L.L.L.L.L.L.L.L.L.L.L.L.L.L.L.L.L.L.L.L.L.L.L.L.L.L.L.",
"L.L.L.L.L.L.L.L.L.L.L.L.L.L.L.L.L.L.L.L.L.L.L.L.L.L.L.L.L.L.L.L.L.L.L.L.L.L.L.L.L.L.L.L.L.L.L.L.L.L.L.L.L.L.L.L.L.L.L.L.L.L.L.L.",
"L.L.L.L.L.L.L.L.L.L.L.L.L.L.L.L.L.L.L.L.L.L.L.L.L.L.L.L.L.L.L.L.L.L.L.L.L.L.L.L.L.L.L.L.L.L.L.L.L.L.L.L.L.L.L.L.L.L.L.L.L.L.L.L.",
"L.L.L.L.L.L.L.L.L.L.L.L.L.L.L.L.L.L.L.L.L.L.L.L.L.L.L.L.L.L.L.L.L.L.L.L.L.L.L.L.L.L.L.L.L.L.L.L.L.L.L.L.L.L.L.L.L.L.L.L.L.L.L.L."
};
